<svg width="24" height="24" viewBox="0 0 24 24" fill="none" xmlns="http://www.w3.org/2000/svg">
<path d="M9 22H15C20 22 22 20 22 15V9C22 4 20 2 15 2H9C4 2 2 4 2 9V15C2 20 4 22 9 22Z" stroke="white" stroke-width="1.5" stroke-linecap="round" stroke-linejoin="round"/>
<path d="M15.5 9.75C15.8978 9.75 16.2794 9.59196 16.5607 9.31066C16.842 9.02936 17 8.64782 17 8.25C17 7.85218 16.842 7.47064 16.5607 7.18934C16.2794 6.90804 15.8978 6.75 15.5 6.75C15.1022 6.75 14.7206 6.90804 14.4393 7.18934C14.158 7.47064 14 7.85218 14 8.25C14 8.64782 14.158 9.02936 14.4393 9.31066C14.7206 9.59196 15.1022 9.75 15.5 9.75V9.75ZM8.5 9.75C8.89782 9.75 9.27936 9.59196 9.56066 9.31066C9.84196 9.02936 10 8.64782 10 8.25C10 7.85218 9.84196 7.47064 9.56066 7.18934C9.27936 6.90804 8.89782 6.75 8.5 6.75C8.10218 6.75 7.72064 6.90804 7.43934 7.18934C7.15804 7.47064 7 7.85218 7 8.25C7 8.64782 7.15804 9.02936 7.43934 9.31066C7.72064 9.59196 8.10218 9.75 8.5 9.75ZM8.4 13.3H15.6C16.1 13.3 16.5 13.7 16.5 14.2C16.5 16.69 14.49 18.7 12 18.7C9.51 18.7 7.5 16.69 7.5 14.2C7.5 13.7 7.9 13.3 8.4 13.3V13.3Z" stroke="white" stroke-width="1.5" stroke-miterlimit="10" stroke-linecap="round" stroke-linejoin="round"/>
</svg>
