<svg width="24" height="24" viewBox="0 0 24 24" fill="none" xmlns="http://www.w3.org/2000/svg">
<path d="M21.6799 16.96L18.5499 9.65C17.4899 7.17 15.5399 7.07 14.2299 9.43L12.3399 12.84C11.3799 14.57 9.58993 14.72 8.34993 13.17L8.12993 12.89C6.83993 11.27 5.01993 11.47 4.08993 13.32L2.36993 16.77C1.15993 19.17 2.90993 22 5.58993 22H18.3499C20.9499 22 22.6999 19.35 21.6799 16.96ZM6.96993 8C7.76558 8 8.52864 7.68393 9.09125 7.12132C9.65386 6.55871 9.96993 5.79565 9.96993 5C9.96993 4.20435 9.65386 3.44129 9.09125 2.87868C8.52864 2.31607 7.76558 2 6.96993 2C6.17428 2 5.41121 2.31607 4.84861 2.87868C4.286 3.44129 3.96993 4.20435 3.96993 5C3.96993 5.79565 4.286 6.55871 4.84861 7.12132C5.41121 7.68393 6.17428 8 6.96993 8V8Z" stroke="white" stroke-width="1.5" stroke-linecap="round" stroke-linejoin="round"/>
</svg>
