<svg width="21" height="21" viewBox="0 0 21 21" fill="none" xmlns="http://www.w3.org/2000/svg">
<path d="M10.5 0C4.7145 0 0 4.7145 0 10.5C0 16.2855 4.7145 21 10.5 21C16.2855 21 21 16.2855 21 10.5C21 4.7145 16.2855 0 10.5 0ZM9.7125 6.3C9.7125 5.8695 10.0695 5.5125 10.5 5.5125C10.9305 5.5125 11.2875 5.8695 11.2875 6.3V11.55C11.2875 11.9805 10.9305 12.3375 10.5 12.3375C10.0695 12.3375 9.7125 11.9805 9.7125 11.55V6.3ZM11.466 15.099C11.4135 15.2355 11.34 15.3405 11.2455 15.4455C11.1405 15.54 11.025 15.6135 10.899 15.666C10.773 15.7185 10.6365 15.75 10.5 15.75C10.3635 15.75 10.227 15.7185 10.101 15.666C9.975 15.6135 9.8595 15.54 9.7545 15.4455C9.66 15.3405 9.5865 15.2355 9.534 15.099C9.48007 14.9728 9.45152 14.8372 9.45 14.7C9.45 14.5635 9.4815 14.427 9.534 14.301C9.5865 14.175 9.66 14.0595 9.7545 13.9545C9.8595 13.86 9.975 13.7865 10.101 13.734C10.3566 13.629 10.6434 13.629 10.899 13.734C11.025 13.7865 11.1405 13.86 11.2455 13.9545C11.34 14.0595 11.4135 14.175 11.466 14.301C11.5185 14.427 11.55 14.5635 11.55 14.7C11.55 14.8365 11.5185 14.973 11.466 15.099Z" fill="#00365A"/>
</svg>
