<svg width="24" height="24" viewBox="0 0 24 24" fill="none" xmlns="http://www.w3.org/2000/svg">
<path d="M16.9598 6.17001C18.9598 7.56001 20.3398 9.77001 20.6198 12.32M3.4898 12.37C3.61553 11.1472 4.00191 9.96552 4.62291 8.90464C5.24392 7.84376 6.08511 6.92832 7.0898 6.22001M8.1898 20.94C9.3498 21.53 10.6698 21.86 12.0598 21.86C13.3998 21.86 14.6598 21.56 15.7898 21.01M12.0598 7.70001C12.7971 7.70001 13.5042 7.40712 14.0256 6.88577C14.5469 6.36442 14.8398 5.65732 14.8398 4.92001C14.8398 4.18271 14.5469 3.47561 14.0256 2.95426C13.5042 2.43291 12.7971 2.14001 12.0598 2.14001C11.3225 2.14001 10.6154 2.43291 10.094 2.95426C9.5727 3.47561 9.2798 4.18271 9.2798 4.92001C9.2798 5.65732 9.5727 6.36442 10.094 6.88577C10.6154 7.40712 11.3225 7.70001 12.0598 7.70001V7.70001ZM4.8298 19.92C5.56711 19.92 6.27421 19.6271 6.79556 19.1058C7.31691 18.5844 7.60981 17.8773 7.60981 17.14C7.60981 16.4027 7.31691 15.6956 6.79556 15.1743C6.27421 14.6529 5.56711 14.36 4.8298 14.36C4.0925 14.36 3.3854 14.6529 2.86405 15.1743C2.3427 15.6956 2.0498 16.4027 2.0498 17.14C2.0498 17.8773 2.3427 18.5844 2.86405 19.1058C3.3854 19.6271 4.0925 19.92 4.8298 19.92V19.92ZM19.1698 19.92C19.9071 19.92 20.6142 19.6271 21.1356 19.1058C21.6569 18.5844 21.9498 17.8773 21.9498 17.14C21.9498 16.4027 21.6569 15.6956 21.1356 15.1743C20.6142 14.6529 19.9071 14.36 19.1698 14.36C18.4325 14.36 17.7254 14.6529 17.204 15.1743C16.6827 15.6956 16.3898 16.4027 16.3898 17.14C16.3898 17.8773 16.6827 18.5844 17.204 19.1058C17.7254 19.6271 18.4325 19.92 19.1698 19.92V19.92Z" stroke="#00365A" stroke-width="1.5" stroke-linecap="round" stroke-linejoin="round"/>
</svg>
