<svg width="24" height="24" viewBox="0 0 24 24" fill="none" xmlns="http://www.w3.org/2000/svg">
<path d="M2 2H3.74C4.82 2 5.67 2.93 5.58 4L4.75 13.96C4.71759 14.3459 4.76569 14.7342 4.89123 15.1005C5.01678 15.4669 5.21705 15.8031 5.47934 16.0879C5.74163 16.3728 6.06023 16.6001 6.41495 16.7553C6.76967 16.9106 7.15278 16.9905 7.54 16.99H18.19C19.63 16.99 20.89 15.81 21 14.38L21.54 6.88C21.66 5.22 20.4 3.87 18.73 3.87H5.82M9 8H21M16.25 22C16.5815 22 16.8995 21.8683 17.1339 21.6339C17.3683 21.3995 17.5 21.0815 17.5 20.75C17.5 20.4185 17.3683 20.1005 17.1339 19.8661C16.8995 19.6317 16.5815 19.5 16.25 19.5C15.9185 19.5 15.6005 19.6317 15.3661 19.8661C15.1317 20.1005 15 20.4185 15 20.75C15 21.0815 15.1317 21.3995 15.3661 21.6339C15.6005 21.8683 15.9185 22 16.25 22ZM8.25 22C8.58152 22 8.89946 21.8683 9.13388 21.6339C9.3683 21.3995 9.5 21.0815 9.5 20.75C9.5 20.4185 9.3683 20.1005 9.13388 19.8661C8.89946 19.6317 8.58152 19.5 8.25 19.5C7.91848 19.5 7.60054 19.6317 7.36612 19.8661C7.1317 20.1005 7 20.4185 7 20.75C7 21.0815 7.1317 21.3995 7.36612 21.6339C7.60054 21.8683 7.91848 22 8.25 22V22Z" stroke="#00365A" stroke-width="1.5" stroke-miterlimit="10" stroke-linecap="round" stroke-linejoin="round"/>
</svg>
