<svg width="30" height="35" viewBox="0 0 30 35" fill="none" xmlns="http://www.w3.org/2000/svg">
<path fill-rule="evenodd" clip-rule="evenodd" d="M7.5 4.88775C5.7643 5.09355 4.49115 5.49092 3.43512 6.25817C2.72767 6.77217 2.10552 7.39431 1.59152 8.10177C0 10.2923 0 13.4171 0 19.6666C0 25.9162 0 29.041 1.59152 31.2315C2.10552 31.939 2.72767 32.5611 3.43512 33.0751C5.62567 34.6666 8.75045 34.6666 15 34.6666C16.3982 34.6666 17.6401 34.6666 18.75 34.6488L18.75 34.5319C18.7499 33.1119 18.7498 32.2469 18.868 31.5008C19.5175 27.4002 22.7335 24.1841 26.8342 23.5346C27.5803 23.4165 28.4453 23.4165 29.8653 23.4166L29.9822 23.4166C30 22.3069 30 21.0653 30 19.6674C30 13.4179 30 10.2923 28.4085 8.10177C27.8945 7.39431 27.2723 6.77217 26.5649 6.25817C25.5088 5.49092 24.2357 5.09355 22.5 4.88775V6.33331C22.5 7.71403 21.3807 8.83331 20 8.83331C18.6193 8.83331 17.5 7.71403 17.5 6.33331V4.67133C16.7265 4.66665 15.8953 4.66665 15 4.66665C14.1047 4.66665 13.2735 4.66665 12.5 4.67133V6.33331C12.5 7.71403 11.3807 8.83331 10 8.83331C8.61929 8.83331 7.5 7.71403 7.5 6.33331V4.88775ZM6.66667 14.6666C7.58714 14.6666 8.33333 13.9205 8.33333 13C8.33333 12.0795 7.58714 11.3333 6.66667 11.3333C5.74619 11.3333 5 12.0795 5 13C5 13.9205 5.74619 14.6666 6.66667 14.6666ZM8.33333 19.6666C8.33333 20.5871 7.58714 21.3333 6.66667 21.3333C5.74619 21.3333 5 20.5871 5 19.6666C5 18.7462 5.74619 18 6.66667 18C7.58714 18 8.33333 18.7462 8.33333 19.6666ZM15 14.6666C15.9205 14.6666 16.6667 13.9205 16.6667 13C16.6667 12.0795 15.9205 11.3333 15 11.3333C14.0795 11.3333 13.3333 12.0795 13.3333 13C13.3333 13.9205 14.0795 14.6666 15 14.6666ZM16.6667 19.6666C16.6667 20.5871 15.9205 21.3333 15 21.3333C14.0795 21.3333 13.3333 20.5871 13.3333 19.6666C13.3333 18.7462 14.0795 18 15 18C15.9205 18 16.6667 18.7462 16.6667 19.6666ZM15 28C15.9205 28 16.6667 27.2538 16.6667 26.3333C16.6667 25.4128 15.9205 24.6666 15 24.6666C14.0795 24.6666 13.3333 25.4128 13.3333 26.3333C13.3333 27.2538 14.0795 28 15 28ZM25 13C25 13.9205 24.2538 14.6666 23.3333 14.6666C22.4129 14.6666 21.6667 13.9205 21.6667 13C21.6667 12.0795 22.4129 11.3333 23.3333 11.3333C24.2538 11.3333 25 12.0795 25 13ZM23.3333 21.3333C24.2538 21.3333 25 20.5871 25 19.6666C25 18.7462 24.2538 18 23.3333 18C22.4129 18 21.6667 18.7462 21.6667 19.6666C21.6667 20.5871 22.4129 21.3333 23.3333 21.3333ZM8.33333 26.3333C8.33333 27.2538 7.58714 28 6.66667 28C5.74619 28 5 27.2538 5 26.3333C5 25.4128 5.74619 24.6666 6.66667 24.6666C7.58714 24.6666 8.33333 25.4128 8.33333 26.3333Z" fill="#6CCA00"/>
<path d="M29.8911 25.9167C28.3739 25.9169 27.7392 25.9224 27.2253 26.0039C24.1943 26.4839 21.8173 28.861 21.3372 31.8919C21.2558 32.4059 21.2502 33.0405 21.25 34.5577C23.6494 34.4004 25.2703 34.0157 26.5649 33.0751C27.2723 32.5611 27.8945 31.939 28.4085 31.2315C29.3491 29.9369 29.7338 28.316 29.8911 25.9167Z" fill="#6CCA00"/>
<path d="M11.25 1.33331C11.25 0.642957 10.6904 0.083313 10 0.083313C9.30964 0.083313 8.75 0.642957 8.75 1.33331V6.33331C8.75 7.02367 9.30964 7.58331 10 7.58331C10.6904 7.58331 11.25 7.02367 11.25 6.33331V1.33331Z" fill="#6CCA00"/>
<path d="M21.25 1.33331C21.25 0.642957 20.6904 0.083313 20 0.083313C19.3096 0.083313 18.75 0.642957 18.75 1.33331V6.33331C18.75 7.02367 19.3096 7.58331 20 7.58331C20.6904 7.58331 21.25 7.02367 21.25 6.33331V1.33331Z" fill="#6CCA00"/>
</svg>
