<svg width="34" height="25" viewBox="0 0 34 25" fill="none" xmlns="http://www.w3.org/2000/svg">
<path d="M33.66 0H9.86C9.673 0 9.52 0.127841 9.52 0.284091V2.55682C9.52 2.71307 9.673 2.84091 9.86 2.84091H33.66C33.847 2.84091 34 2.71307 34 2.55682V0.284091C34 0.127841 33.847 0 33.66 0ZM33.66 22.1591H9.86C9.673 22.1591 9.52 22.2869 9.52 22.4432V24.7159C9.52 24.8722 9.673 25 9.86 25H33.66C33.847 25 34 24.8722 34 24.7159V22.4432C34 22.2869 33.847 22.1591 33.66 22.1591ZM33.66 11.0795H0.34C0.153 11.0795 0 11.2074 0 11.3636V13.6364C0 13.7926 0.153 13.9205 0.34 13.9205H33.66C33.847 13.9205 34 13.7926 34 13.6364V11.3636C34 11.2074 33.847 11.0795 33.66 11.0795Z" fill="#38C961"/>
</svg>
