<svg width="68" height="60" viewBox="0 0 68 60" fill="none" xmlns="http://www.w3.org/2000/svg">
<path d="M61.12 33.17L60.11 32.77C59.08 32.36 58.17 31.75 57.38 30.97C55.47 29.05 52.92 28 50.22 28H15.54L9.83 19.45C9.65 19.17 9.33 19 9 19H5C4.45 19 4 19.45 4 20V35C4 35.44 4.28 35.82 4.7 35.95L23.7 41.95C23.8 41.98 23.9 42 24 42H27V56C27 56.55 27.45 57 28 57H35C35.43 57 35.81 56.73 35.95 56.32L40.72 42H59.42C61.95 42 64 39.95 64 37.42C64 35.54 62.87 33.87 61.12 33.17ZM6 21H8.47L13.13 28H6V21ZM59.42 40H40C39.57 40 39.19 40.28 39.05 40.68L34.28 55H29V41C29 40.45 28.55 40 28 40H24.15L6 34.27V30H50.22C52.2 30 54.07 30.71 55.55 32H53V34H58V33.94C58.44 34.2 58.89 34.43 59.37 34.63L60.38 35.03C61.36 35.42 62 36.36 62 37.42C62 38.84 60.84 40 59.42 40Z" fill="#C1C8D2"/>
<path d="M50 32H48V34H50V32Z" fill="#C1C8D2"/>
<path d="M46 32H44V34H46V32Z" fill="#C1C8D2"/>
<path d="M42 32H40V34H42V32Z" fill="#C1C8D2"/>
<path d="M38 32H36V34H38V32Z" fill="#C1C8D2"/>
<path d="M34 32H32V34H34V32Z" fill="#C1C8D2"/>
<path d="M30 32H28V34H30V32Z" fill="#C1C8D2"/>
<path d="M26 32H24V34H26V32Z" fill="#C1C8D2"/>
<path d="M22 32H20V34H22V32Z" fill="#C1C8D2"/>
<path d="M18 32H16V34H18V32Z" fill="#C1C8D2"/>
<path d="M19.76 10.22C18.57 9.68999 17.33 9.13999 16.02 8.75999C14.2 8.22999 11.53 7.86999 9.19995 9.15999L10.17 10.91C12 9.89999 14.27 10.33 15.47 10.68C16.65 11.02 17.77 11.52 18.95 12.04C19.68 12.37 20.41 12.69 21.16 12.98C22.05 13.32 23.09 13.66 24.2 13.66C24.32 13.66 24.44 13.66 24.55 13.65C26.03 13.55 27.31 12.76 27.88 11.6L26.08 10.72C25.83 11.23 25.16 11.61 24.41 11.66C23.56 11.72 22.65 11.42 21.87 11.12C21.15 10.84 20.45 10.53 19.75 10.22H19.76Z" fill="#C1C8D2"/>
<path d="M17.7 19.01C15.84 18.95 14.94 19.66 14.52 20.27L16.17 21.41C16.36 21.13 16.91 20.97 17.64 21.01C19.68 21.08 21.62 21.86 23.67 22.69C25.49 23.43 27.36 24.19 29.39 24.44C29.68 24.48 30 24.51 30.35 24.51C30.8 24.51 31.3 24.45 31.79 24.29C32.8 23.94 33.55 23.15 33.75 22.21L31.8 21.78C31.75 22.02 31.47 22.28 31.14 22.39C30.77 22.52 30.31 22.54 29.65 22.45C27.89 22.22 26.21 21.55 24.43 20.83C22.31 19.97 20.11 19.08 17.72 19.01H17.7Z" fill="#C1C8D2"/>
<path d="M52.2965 15.2895L45.2961 22.2899L46.7104 23.7041L53.7107 16.7037L52.2965 15.2895Z" fill="#6CCA00"/>
<path d="M55.3004 12.2875L53.2993 14.2886L54.7135 15.7028L56.7146 13.7017L55.3004 12.2875Z" fill="#6CCA00"/>
<path d="M58.7299 6.34C57.2199 4.83 55.2099 4 53.0699 4C50.9299 4 48.9199 4.83 47.4099 6.34L45.9999 7.76L44.5899 6.34C43.0699 4.83 41.0599 4 38.9299 4C36.7999 4 34.7799 4.83 33.2699 6.34C31.7599 7.85 30.9299 9.86 30.9299 12C30.9299 14.14 31.7599 16.15 33.2699 17.66L43.6199 28H48.3799L58.7299 17.66C60.2399 16.15 61.0699 14.14 61.0699 12C61.0699 9.86 60.2399 7.85 58.7299 6.34ZM57.3099 16.24L45.9999 27.56L34.6899 16.24C33.5499 15.11 32.9299 13.6 32.9299 12C32.9299 10.4 33.5499 8.89 34.6899 7.76C35.8199 6.62 37.3299 6 38.9299 6C40.5299 6 42.0399 6.62 43.1699 7.76L45.2899 9.88C45.6799 10.27 46.3199 10.27 46.7099 9.88L48.8299 7.76C49.9599 6.62 51.4699 6 53.0699 6C54.6699 6 56.1799 6.62 57.3099 7.76C58.4499 8.89 59.0699 10.4 59.0699 12C59.0699 13.6 58.4499 15.11 57.3099 16.24Z" fill="#6CCA00"/>
</svg>
