<svg width="32" height="32" viewBox="0 0 32 32" fill="none" xmlns="http://www.w3.org/2000/svg">
<path d="M16.8607 7.46429H15.1429C14.9857 7.46429 14.8571 7.59286 14.8571 7.75V17.5821C14.8571 17.675 14.9 17.7607 14.975 17.8143L20.8786 22.125C21.0071 22.2179 21.1857 22.1929 21.2786 22.0643L22.3 20.6714C22.3964 20.5393 22.3679 20.3607 22.2393 20.2714L17.1464 16.5893V7.75C17.1464 7.59286 17.0179 7.46429 16.8607 7.46429ZM24.7107 10.15L30.3107 11.5179C30.4893 11.5607 30.6643 11.425 30.6643 11.2429L30.6929 5.475C30.6929 5.23571 30.4179 5.1 30.2321 5.25L24.6036 9.64643C24.561 9.67934 24.5286 9.72358 24.5101 9.77408C24.4916 9.82458 24.4877 9.87927 24.4989 9.93188C24.5101 9.98448 24.5359 10.0329 24.5734 10.0714C24.6109 10.11 24.6585 10.1373 24.7107 10.15ZM30.7 20.9036L28.675 20.2071C28.6044 20.1829 28.5271 20.1873 28.4597 20.2194C28.3923 20.2514 28.3401 20.3085 28.3143 20.3786C28.2464 20.5607 28.175 20.7393 28.1 20.9179C27.4643 22.4214 26.5536 23.775 25.3893 24.9357C24.2379 26.0906 22.8734 27.0112 21.3714 27.6464C19.8155 28.3043 18.1429 28.642 16.4536 28.6393C14.7464 28.6393 13.0929 28.3071 11.5357 27.6464C10.0337 27.0112 8.66922 26.0906 7.51786 24.9357C6.35714 23.775 5.44643 22.4214 4.80714 20.9179C4.15292 19.361 3.81773 17.6887 3.82143 16C3.82143 14.2929 4.15357 12.6357 4.81429 11.0786C5.45 9.575 6.36072 8.22143 7.525 7.06072C8.67636 5.90578 10.0409 4.9852 11.5429 4.35C13.0929 3.68929 14.75 3.35714 16.4571 3.35714C18.1643 3.35714 19.8179 3.68929 21.375 4.35C22.877 4.9852 24.2415 5.90578 25.3929 7.06072C25.7571 7.42857 26.1 7.81071 26.4143 8.21429L28.55 6.54286C25.7393 2.95 21.3643 0.639285 16.45 0.642857C7.89286 0.646428 1.02143 7.59643 1.10714 16.1571C1.19286 24.5679 8.03214 31.3571 16.4571 31.3571C23.0821 31.3571 28.725 27.1571 30.875 21.275C30.9286 21.125 30.85 20.9571 30.7 20.9036Z" fill="#38C961"/>
</svg>
