<svg width="15" height="19" viewBox="0 0 15 19" fill="none" xmlns="http://www.w3.org/2000/svg">
<path d="M7.5625 8.72266V14.5143" stroke="#CCB07D" stroke-linecap="round" stroke-linejoin="round"/>
<path d="M4.66797 11.6191H10.4596" stroke="#CCB07D" stroke-linecap="round" stroke-linejoin="round"/>
<path d="M4.66775 2.44727H2.80664C1.70207 2.44727 0.806641 3.3427 0.806641 4.44727V16.3744C0.806641 17.4789 1.70207 18.3743 2.80664 18.3743H12.3205C13.4251 18.3743 14.3205 17.4789 14.3205 16.3743V4.44726C14.3205 3.3427 13.4251 2.44727 12.3205 2.44727H10.4594" stroke="#CCB07D" stroke-linecap="round" stroke-linejoin="round"/>
<path d="M10.4596 2.44792C10.4596 1.64825 9.81138 1 9.01172 1H6.11588C5.31622 1 4.66797 1.64825 4.66797 2.44792V2.44792V2.44792C4.66797 3.24758 5.31622 3.89583 6.11589 3.89583H9.01172C9.81138 3.89583 10.4596 3.24758 10.4596 2.44792V2.44792V2.44792Z" stroke="#CCB07D" stroke-linecap="round" stroke-linejoin="round"/>
</svg>
