<svg width="24" height="24" viewBox="0 0 24 24" fill="none" xmlns="http://www.w3.org/2000/svg">
<path d="M13.91 10.83H10.85L10.09 13.12H12.38C12.5809 13.12 12.7799 13.1596 12.9655 13.2365C13.1512 13.3134 13.3198 13.4261 13.4619 13.5681C13.604 13.7102 13.7167 13.8789 13.7936 14.0645C13.8704 14.2501 13.91 14.4491 13.91 14.65C13.91 14.8509 13.8704 15.0499 13.7936 15.2355C13.7167 15.4211 13.604 15.5898 13.4619 15.7319C13.3198 15.8739 13.1512 15.9866 12.9655 16.0635C12.7799 16.1404 12.5809 16.18 12.38 16.18H10.09M10.02 4.47L12 2" stroke="#00365A" stroke-width="1.5" stroke-linecap="round" stroke-linejoin="round"/>
<path d="M4.90986 7.8C3.79986 9.28 3.10986 11.11 3.10986 13.11C3.10986 15.4678 4.04649 17.729 5.71368 19.3962C7.38088 21.0634 9.64209 22 11.9999 22C14.3576 22 16.6188 21.0634 18.286 19.3962C19.9532 17.729 20.8899 15.4678 20.8899 13.11C20.8899 10.7522 19.9532 8.49102 18.286 6.82382C16.6188 5.15662 14.3576 4.22 11.9999 4.22C11.3199 4.22 10.6599 4.31 10.0199 4.46" stroke="#00365A" stroke-width="1.5" stroke-linecap="round" stroke-linejoin="round"/>
</svg>
