<svg width="18" height="18" viewBox="0 0 18 18" fill="none" xmlns="http://www.w3.org/2000/svg">
<path d="M16.1483 5.46054L7.14828 14.4605C7.09604 14.5128 7.034 14.5543 6.96572 14.5826C6.89743 14.6109 6.82423 14.6255 6.75031 14.6255C6.67639 14.6255 6.60319 14.6109 6.53491 14.5826C6.46662 14.5543 6.40458 14.5128 6.35234 14.4605L2.41484 10.523C2.3093 10.4175 2.25 10.2743 2.25 10.1251C2.25 9.9758 2.3093 9.83265 2.41484 9.7271C2.52039 9.62155 2.66355 9.56226 2.81281 9.56226C2.96208 9.56226 3.10523 9.62155 3.21078 9.7271L6.75031 13.2673L15.3523 4.6646C15.4579 4.55905 15.601 4.49976 15.7503 4.49976C15.8996 4.49976 16.0427 4.55905 16.1483 4.6646C16.2538 4.77015 16.3131 4.9133 16.3131 5.06257C16.3131 5.21184 16.2538 5.35499 16.1483 5.46054Z" fill="#3761EB"/>
</svg>
