<svg width="19" height="19" viewBox="0 0 19 19" fill="none" xmlns="http://www.w3.org/2000/svg">
<path d="M12.2951 7.54508L10.3394 9.5L12.2951 11.4549C12.3502 11.5101 12.394 11.5756 12.4239 11.6477C12.4537 11.7197 12.4691 11.797 12.4691 11.875C12.4691 11.953 12.4537 12.0303 12.4239 12.1023C12.394 12.1744 12.3502 12.2399 12.2951 12.2951C12.2399 12.3502 12.1744 12.394 12.1023 12.4239C12.0303 12.4537 11.953 12.4691 11.875 12.4691C11.797 12.4691 11.7197 12.4537 11.6477 12.4239C11.5756 12.394 11.5101 12.3502 11.4549 12.2951L9.5 10.3394L7.54508 12.2951C7.48992 12.3502 7.42443 12.394 7.35235 12.4239C7.28027 12.4537 7.20302 12.4691 7.125 12.4691C7.04699 12.4691 6.96974 12.4537 6.89766 12.4239C6.82558 12.394 6.76009 12.3502 6.70493 12.2951C6.64976 12.2399 6.606 12.1744 6.57614 12.1023C6.54629 12.0303 6.53092 11.953 6.53092 11.875C6.53092 11.797 6.54629 11.7197 6.57614 11.6477C6.606 11.5756 6.64976 11.5101 6.70493 11.4549L8.66059 9.5L6.70493 7.54508C6.59351 7.43367 6.53092 7.28256 6.53092 7.125C6.53092 6.96744 6.59351 6.81633 6.70493 6.70492C6.81634 6.59351 6.96744 6.53092 7.125 6.53092C7.28256 6.53092 7.43367 6.59351 7.54508 6.70492L9.5 8.66059L11.4549 6.70492C11.5101 6.64976 11.5756 6.606 11.6477 6.57614C11.7197 6.54629 11.797 6.53092 11.875 6.53092C11.953 6.53092 12.0303 6.54629 12.1023 6.57614C12.1744 6.606 12.2399 6.64976 12.2951 6.70492C12.3502 6.76009 12.394 6.82558 12.4239 6.89766C12.4537 6.96973 12.4691 7.04698 12.4691 7.125C12.4691 7.20302 12.4537 7.28027 12.4239 7.35234C12.394 7.42442 12.3502 7.48991 12.2951 7.54508ZM17.2188 9.5C17.2188 11.0266 16.7661 12.519 15.9179 13.7883C15.0698 15.0576 13.8643 16.047 12.4538 16.6312C11.0434 17.2154 9.49144 17.3683 7.99415 17.0704C6.49686 16.7726 5.12151 16.0375 4.04202 14.958C2.96254 13.8785 2.2274 12.5031 1.92957 11.0059C1.63174 9.50856 1.78459 7.95658 2.36881 6.54616C2.95302 5.13574 3.94235 3.93024 5.2117 3.08209C6.48104 2.23395 7.97338 1.78125 9.5 1.78125C11.5465 1.78341 13.5085 2.59733 14.9556 4.04441C16.4027 5.49148 17.2166 7.45352 17.2188 9.5ZM16.0313 9.5C16.0313 8.20824 15.6482 6.94549 14.9305 5.87143C14.2129 4.79737 13.1928 3.96025 11.9994 3.46591C10.806 2.97158 9.49276 2.84224 8.22582 3.09425C6.95888 3.34626 5.79512 3.9683 4.88171 4.88171C3.9683 5.79512 3.34626 6.95888 3.09425 8.22582C2.84224 9.49275 2.97158 10.806 3.46592 11.9994C3.96025 13.1928 4.79738 14.2129 5.87144 14.9305C6.94549 15.6482 8.20824 16.0312 9.5 16.0312C11.2316 16.0293 12.8917 15.3405 14.1161 14.1161C15.3405 12.8917 16.0293 11.2316 16.0313 9.5Z" fill="#3761EB"/>
</svg>
