<svg width="24" height="24" viewBox="0 0 24 24" fill="none" xmlns="http://www.w3.org/2000/svg">
<path d="M12 2V9M12 9L14 7M12 9L9.99998 7M1.97998 13H6.38998C6.76998 13 7.10998 13.21 7.27998 13.55L8.44998 15.89C8.61556 16.2232 8.87081 16.5036 9.18703 16.6997C9.50324 16.8958 9.8679 16.9998 10.24 17H13.77C14.1421 16.9998 14.5067 16.8958 14.8229 16.6997C15.1392 16.5036 15.3944 16.2232 15.56 15.89L16.73 13.55C16.8131 13.3851 16.9402 13.2464 17.0973 13.1493C17.2544 13.0522 17.4353 13.0006 17.62 13H21.98" stroke="white" stroke-width="1.5" stroke-linecap="round" stroke-linejoin="round"/>
<path d="M7 4.13C3.46 4.65 2 6.73 2 11V15C2 20 4 22 9 22H15C20 22 22 20 22 15V11C22 6.73 20.54 4.65 17 4.13" stroke="white" stroke-width="1.5" stroke-linecap="round" stroke-linejoin="round"/>
</svg>
