<svg width="24" height="24" viewBox="0 0 24 24" fill="none" xmlns="http://www.w3.org/2000/svg">
<path d="M13.9799 4.47L11.9999 2M19.0899 7.8C20.1999 9.28 20.8899 11.11 20.8899 13.11C20.8899 15.4678 19.9532 17.729 18.286 19.3962C16.6188 21.0634 14.3576 22 11.9999 22C9.64209 22 7.38088 21.0634 5.71368 19.3962C4.04649 17.729 3.10986 15.4678 3.10986 13.11C3.10986 10.7522 4.04649 8.49102 5.71368 6.82382C7.38088 5.15662 9.64209 4.22 11.9999 4.22C12.6799 4.22 13.3399 4.31 13.9799 4.46" stroke="#00365A" stroke-width="1.5" stroke-linecap="round" stroke-linejoin="round"/>
<path d="M9.54004 15.92V10.58L8.04004 12.25M14 10.58C15.1 10.58 16 11.48 16 12.58V13.93C16 15.03 15.1 15.93 14 15.93C12.9 15.93 12 15.03 12 13.93V12.58C12 12.0496 12.2108 11.5408 12.5858 11.1658C12.9609 10.7907 13.4696 10.58 14 10.58Z" stroke="#00365A" stroke-width="1.5" stroke-linecap="round" stroke-linejoin="round"/>
</svg>
