<svg width="18" height="18" viewBox="0 0 18 18" fill="none" xmlns="http://www.w3.org/2000/svg">
<path d="M12.5156 2.25C11.0637 2.25 9.79242 2.87437 9 3.92977C8.20758 2.87437 6.93633 2.25 5.48438 2.25C4.3286 2.2513 3.22053 2.71101 2.40327 3.52827C1.58601 4.34553 1.1263 5.4536 1.125 6.60938C1.125 11.5312 8.42273 15.5152 8.73352 15.6797C8.81543 15.7238 8.90699 15.7468 9 15.7468C9.09301 15.7468 9.18457 15.7238 9.26648 15.6797C9.57726 15.5152 16.875 11.5312 16.875 6.60938C16.8737 5.4536 16.414 4.34553 15.5967 3.52827C14.7795 2.71101 13.6714 2.2513 12.5156 2.25ZM9 14.5406C7.71609 13.7925 2.25 10.3845 2.25 6.60938C2.25112 5.75191 2.59224 4.92988 3.19856 4.32356C3.80488 3.71724 4.62691 3.37612 5.48438 3.375C6.85195 3.375 8.00016 4.10344 8.47969 5.27344C8.52207 5.37661 8.59416 5.46485 8.6868 5.52695C8.77945 5.58905 8.88847 5.62221 9 5.62221C9.11153 5.62221 9.22055 5.58905 9.3132 5.52695C9.40584 5.46485 9.47793 5.37661 9.52031 5.27344C9.99984 4.10133 11.148 3.375 12.5156 3.375C13.3731 3.37612 14.1951 3.71724 14.8014 4.32356C15.4078 4.92988 15.7489 5.75191 15.75 6.60938C15.75 10.3788 10.2825 13.7918 9 14.5406Z" fill="#3761EB"/>
</svg>
