<svg width="28" height="26" viewBox="0 0 28 26" fill="none" xmlns="http://www.w3.org/2000/svg">
<path d="M2.26241 14.5875C1.14161 12.6992 0.748759 10.4667 1.15764 8.30919C1.56653 6.15172 2.74901 4.21775 4.48302 2.8705C6.21702 1.52325 8.38324 0.855417 10.5748 0.992423C12.7664 1.12943 14.8326 2.06185 16.3853 3.61456C17.938 5.16728 18.8705 7.23346 19.0075 9.42505C19.1445 11.6166 18.4766 13.7829 17.1294 15.5169C15.7821 17.2509 13.8482 18.4334 11.6907 18.8422C9.53323 19.2511 7.30071 18.8583 5.41241 17.7375L2.29991 18.625C2.17167 18.661 2.03614 18.6623 1.90726 18.6286C1.77837 18.5949 1.66079 18.5275 1.56659 18.4333C1.47239 18.3391 1.40499 18.2215 1.3713 18.0926C1.33761 17.9637 1.33886 17.8282 1.37491 17.7L2.26241 14.5875Z" stroke="#00365A" stroke-width="1.5" stroke-linecap="round" stroke-linejoin="round"/>
<path d="M9.5127 18.9875C9.95325 20.2435 10.6673 21.386 11.6033 22.3325C12.5392 23.2789 13.6737 24.0057 14.9248 24.4602C16.1759 24.9147 17.5123 25.0856 18.8375 24.9606C20.1627 24.8356 21.4436 24.4178 22.5877 23.7374V23.7374L25.7002 24.625C25.8284 24.661 25.964 24.6623 26.0929 24.6286C26.2217 24.5949 26.3393 24.5275 26.4335 24.4333C26.5277 24.3391 26.5951 24.2215 26.6288 24.0926C26.6625 23.9637 26.6612 23.8282 26.6252 23.7L25.7377 20.5875C26.53 19.2575 26.9654 17.7454 27.0016 16.1977C27.0378 14.65 26.6736 13.1192 25.9442 11.7536C25.2149 10.3881 24.1453 9.23405 22.8389 8.40339C21.5325 7.57273 20.0337 7.09361 18.4877 7.01245" stroke="#00365A" stroke-width="1.5" stroke-linecap="round" stroke-linejoin="round"/>
</svg>
