<svg width="19" height="20" viewBox="0 0 19 20" fill="none" xmlns="http://www.w3.org/2000/svg">
<path d="M18.5912 5.10119C18.4128 5.19147 18.2051 5.20883 18.0136 5.14946C17.8222 5.09009 17.6627 4.95885 17.5702 4.78459C16.8469 3.38811 15.7522 2.2078 14.401 1.3677C14.3168 1.31579 14.2439 1.24817 14.1864 1.16872C14.129 1.08926 14.0881 0.999524 14.0661 0.904621C14.0441 0.809718 14.0414 0.711512 14.0583 0.615609C14.0751 0.519707 14.1111 0.427985 14.1643 0.345683C14.2174 0.26338 14.2865 0.192108 14.3678 0.135936C14.4491 0.0797634 14.5409 0.0397907 14.638 0.0183001C14.7351 -0.00319058 14.8356 -0.00577833 14.9337 0.0106846C15.0319 0.0271475 15.1257 0.0623387 15.2099 0.114249C16.7846 1.09973 18.0633 2.47632 18.9151 4.10325C19.0075 4.27758 19.0253 4.48062 18.9645 4.66775C18.9038 4.85488 18.7695 5.01078 18.5912 5.10119ZM0.757399 5.18451C0.896216 5.18445 1.03235 5.14712 1.15094 5.0766C1.26953 5.00607 1.36602 4.90506 1.42987 4.78459C2.15312 3.38811 3.24784 2.2078 4.59902 1.3677C4.76909 1.26286 4.88957 1.09629 4.93398 0.904621C4.97838 0.712956 4.94307 0.5119 4.83581 0.345683C4.72855 0.179466 4.55812 0.0617024 4.36203 0.0183001C4.16593 -0.0251023 3.96022 0.00941156 3.79016 0.114249C2.21544 1.09973 0.93677 2.47632 0.084926 4.10325C0.0251021 4.21611 -0.00399312 4.34213 0.000440519 4.46916C0.00487415 4.5962 0.0426873 4.71999 0.110241 4.82861C0.177795 4.93722 0.272815 5.02702 0.386157 5.08935C0.499499 5.15168 0.627348 5.18445 0.757399 5.18451ZM18.3838 14.8066C18.518 15.0316 18.5892 15.2872 18.5901 15.5477C18.591 15.8081 18.5217 16.0642 18.389 16.2901C18.2563 16.516 18.0651 16.7037 17.8345 16.8343C17.604 16.9649 17.3423 17.0337 17.0758 17.0339H13.2114C13.0375 17.871 12.5729 18.6236 11.8962 19.1641C11.2196 19.7047 10.3725 20 9.49861 20C8.62469 20 7.77765 19.7047 7.101 19.1641C6.42435 18.6236 5.95971 17.871 5.7858 17.0339H1.92144C1.65512 17.0334 1.39365 16.9643 1.16335 16.8336C0.933057 16.7029 0.742074 16.5151 0.609644 16.2893C0.477213 16.0635 0.408012 15.8075 0.409009 15.5472C0.410007 15.2869 0.481169 15.0315 0.615328 14.8066C1.46871 13.3671 1.92144 11.3203 1.92144 8.88745C1.92144 6.92329 2.71975 5.03957 4.14074 3.6507C5.56174 2.26182 7.48902 1.48156 9.49861 1.48156C11.5082 1.48156 13.4355 2.26182 14.8565 3.6507C16.2775 5.03957 17.0758 6.92329 17.0758 8.88745C17.0758 11.3194 17.5285 13.3662 18.3838 14.8066ZM11.6411 17.0339H7.35617C7.51315 17.4666 7.80342 17.8412 8.18707 18.1061C8.57071 18.371 9.02889 18.5132 9.49861 18.5132C9.96833 18.5132 10.4265 18.371 10.8102 18.1061C11.1938 17.8412 11.4841 17.4666 11.6411 17.0339ZM17.0758 15.5528C16.068 13.8614 15.5603 11.6193 15.5603 8.88745C15.5603 7.31612 14.9217 5.80915 13.7849 4.69805C12.6481 3.58695 11.1063 2.96274 9.49861 2.96274C7.89094 2.96274 6.34911 3.58695 5.21232 4.69805C4.07552 5.80915 3.43688 7.31612 3.43688 8.88745C3.43688 11.6202 2.92731 13.8624 1.92144 15.5528H17.0758Z" fill="#3761EB"/>
</svg>
