<svg width="24" height="24" viewBox="0 0 24 24" fill="none" xmlns="http://www.w3.org/2000/svg">
<path d="M11.9702 22C17.4932 22 21.9702 17.523 21.9702 12C21.9702 6.477 17.4932 2 11.9702 2C6.44722 2 1.97021 6.477 1.97021 12C1.97021 17.523 6.44722 22 11.9702 22Z" stroke="#00365A" stroke-width="1.5" stroke-linecap="round" stroke-linejoin="round"/>
<path d="M10.72 14.53V9.47C10.72 8.99 10.52 8.8 10.01 8.8H8.71C8.2 8.8 8 8.99 8 9.47V14.53C8 15.01 8.2 15.2 8.71 15.2H10C10.52 15.2 10.72 15.01 10.72 14.53ZM16 14.53V9.47C16 8.99 15.8 8.8 15.29 8.8H14C13.49 8.8 13.29 8.99 13.29 9.47V14.53C13.29 15.01 13.49 15.2 14 15.2H15.29C15.8 15.2 16 15.01 16 14.53Z" stroke="#00365A" stroke-width="1.5" stroke-linecap="round" stroke-linejoin="round"/>
</svg>
