<svg width="18" height="18" viewBox="0 0 18 18" fill="none" xmlns="http://www.w3.org/2000/svg">
<path d="M15.9827 5.15887L12.8412 2.01661C12.7367 1.91211 12.6127 1.82922 12.4762 1.77267C12.3397 1.71612 12.1933 1.68701 12.0456 1.68701C11.8978 1.68701 11.7515 1.71612 11.615 1.77267C11.4785 1.82922 11.3545 1.91211 11.25 2.01661L2.57977 10.6875C2.47485 10.7916 2.39167 10.9155 2.33506 11.0521C2.27844 11.1886 2.24953 11.335 2.25001 11.4828V14.625C2.25001 14.9234 2.36853 15.2096 2.57951 15.4205C2.79049 15.6315 3.07664 15.75 3.37501 15.75H6.51727C6.66506 15.7505 6.81147 15.7216 6.94799 15.665C7.08451 15.6084 7.20842 15.5252 7.31251 15.4203L15.9827 6.75004C16.0872 6.64558 16.1701 6.52154 16.2267 6.38504C16.2832 6.24853 16.3123 6.10222 16.3123 5.95446C16.3123 5.8067 16.2832 5.66039 16.2267 5.52388C16.1701 5.38737 16.0872 5.26334 15.9827 5.15887ZM3.60774 11.25L9.56251 5.29528L10.736 6.46879L4.78126 12.4229L3.60774 11.25ZM3.37501 12.6078L5.39227 14.625H3.37501V12.6078ZM6.75001 14.3923L5.57649 13.2188L11.5313 7.26403L12.7048 8.43754L6.75001 14.3923ZM13.5 7.64231L10.3577 4.50004L12.0452 2.81254L15.1875 5.95411L13.5 7.64231Z" fill="#3761EB"/>
</svg>
