<svg width="27" height="27" viewBox="0 0 27 27" fill="none" xmlns="http://www.w3.org/2000/svg">
<path d="M23.5002 14.5L16.3252 21.675C15.9547 22.0469 15.5145 22.342 15.0297 22.5433C14.5449 22.7447 14.0251 22.8483 13.5002 22.8483C12.9753 22.8483 12.4555 22.7447 11.9707 22.5433C11.4859 22.342 11.0457 22.0469 10.6752 21.675L5.32519 16.325C4.95329 15.9545 4.6582 15.5143 4.45685 15.0295C4.2555 14.5447 4.15186 14.0249 4.15186 13.5C4.15186 12.9751 4.2555 12.4553 4.45685 11.9705C4.6582 11.4857 4.95329 11.0455 5.32519 10.675L12.5002 3.5" stroke="white" stroke-width="2" stroke-linecap="round" stroke-linejoin="round"/>
<path d="M8 19L1 26" stroke="white" stroke-width="2" stroke-linecap="round" stroke-linejoin="round"/>
<path d="M15 6L20 1" stroke="white" stroke-width="2" stroke-linecap="round" stroke-linejoin="round"/>
<path d="M26 7L21 12" stroke="white" stroke-width="2" stroke-linecap="round" stroke-linejoin="round"/>
<path d="M25 16L11 2" stroke="white" stroke-width="2" stroke-linecap="round" stroke-linejoin="round"/>
</svg>
