<svg width="24" height="24" viewBox="0 0 24 24" fill="none" xmlns="http://www.w3.org/2000/svg">
<path d="M12.1198 12.78C12.0401 12.77 11.9595 12.77 11.8798 12.78C11.0317 12.7515 10.228 12.3944 9.63831 11.7842C9.04866 11.174 8.71929 10.3585 8.71977 9.51C8.71977 7.7 10.1798 6.23 11.9998 6.23C12.8592 6.22851 13.6848 6.56481 14.2986 7.1664C14.9124 7.768 15.2652 8.58669 15.2809 9.44599C15.2966 10.3053 14.9741 11.1364 14.3827 11.76C13.7914 12.3837 12.9787 12.75 12.1198 12.78V12.78ZM18.7398 19.38C16.902 21.0691 14.4958 22.0044 11.9998 22C9.39977 22 7.03977 21.01 5.25977 19.38C5.35977 18.44 5.95977 17.52 7.02977 16.8C9.76977 14.98 14.2498 14.98 16.9698 16.8C18.0398 17.52 18.6398 18.44 18.7398 19.38V19.38Z" stroke="#00365A" stroke-width="1.5" stroke-linecap="round" stroke-linejoin="round"/>
<path d="M12 22C17.523 22 22 17.523 22 12C22 6.477 17.523 2 12 2C6.477 2 2 6.477 2 12C2 17.523 6.477 22 12 22Z" stroke="#00365A" stroke-width="1.5" stroke-linecap="round" stroke-linejoin="round"/>
</svg>
