<svg width="33" height="33" viewBox="0 0 33 33" fill="none" xmlns="http://www.w3.org/2000/svg">
<path d="M16.0015 28.5038C22.6289 28.5038 28.0015 23.1312 28.0015 16.5038C28.0015 9.87637 22.6289 4.50378 16.0015 4.50378C9.37405 4.50378 4.00146 9.87637 4.00146 16.5038C4.00146 23.1312 9.37405 28.5038 16.0015 28.5038Z" stroke="black" stroke-width="1.5" stroke-linecap="round" stroke-linejoin="round"/>
<path d="M16.0015 24.2538C16.6918 24.2538 17.2515 23.6941 17.2515 23.0038C17.2515 22.3134 16.6918 21.7538 16.0015 21.7538C15.3111 21.7538 14.7515 22.3134 14.7515 23.0038C14.7515 23.6941 15.3111 24.2538 16.0015 24.2538Z" fill="black"/>
<path d="M16.0015 18.5038V17.5038C16.6937 17.5038 17.3704 17.2985 17.946 16.9139C18.5215 16.5293 18.9701 15.9827 19.235 15.3432C19.4999 14.7036 19.5693 13.9999 19.4342 13.321C19.2992 12.642 18.9658 12.0184 18.4763 11.5289C17.9869 11.0394 17.3632 10.7061 16.6843 10.571C16.0053 10.436 15.3016 10.5053 14.6621 10.7702C14.0225 11.0351 13.4759 11.4837 13.0913 12.0593C12.7067 12.6349 12.5015 13.3116 12.5015 14.0038" stroke="black" stroke-width="1.5" stroke-linecap="round" stroke-linejoin="round"/>
</svg>
