<svg width="16" height="17" viewBox="0 0 16 17" fill="none" xmlns="http://www.w3.org/2000/svg">
<path d="M15.3488 7.43475L1.90861 0.155291C1.68206 0.0346967 1.42221 -0.0176358 1.16356 0.00524532C0.904924 0.0281265 0.659741 0.125138 0.460585 0.283394C0.261429 0.441649 0.117727 0.653657 0.0485688 0.891255C-0.0205895 1.12885 -0.011931 1.38079 0.0733942 1.61361L2.55342 8.48161C2.5531 8.48414 2.5531 8.48668 2.55342 8.48921C2.55297 8.49172 2.55297 8.49428 2.55342 8.4968L0.0733942 15.38C0.00506218 15.5631 -0.0159761 15.7591 0.012045 15.9516C0.0400662 16.1441 0.116329 16.3273 0.234433 16.486C0.352537 16.6447 0.509036 16.7742 0.690794 16.8637C0.872552 16.9531 1.07427 16.9998 1.27901 17C1.50114 16.9995 1.71938 16.9446 1.91261 16.8406L15.3456 9.54897C15.5437 9.44365 15.7087 9.29019 15.8238 9.10435C15.9388 8.9185 15.9996 8.70697 16 8.49145C16.0004 8.27594 15.9404 8.0642 15.8261 7.87797C15.7118 7.69173 15.5473 7.53771 15.3496 7.43171L15.3488 7.43475ZM1.27901 15.7854V15.7785L3.69023 9.10487H8.31908C8.48882 9.10487 8.65161 9.04089 8.77163 8.927C8.89166 8.8131 8.95909 8.65863 8.95909 8.49756C8.95909 8.33649 8.89166 8.18201 8.77163 8.06812C8.65161 7.95422 8.48882 7.89024 8.31908 7.89024H3.69663L1.28381 1.21886L1.27901 1.20975L14.7191 8.48465L1.27901 15.7854Z" fill="white"/>
</svg>
