<svg width="25" height="25" viewBox="0 0 25 25" fill="none" xmlns="http://www.w3.org/2000/svg">
<path d="M23.3594 9.50103C23.2648 9.20941 23.0865 8.95207 22.8467 8.76106C22.6069 8.57005 22.3162 8.45381 22.0108 8.42681L16.211 7.92681L13.9375 2.52056C13.8192 2.23688 13.6195 1.99457 13.3637 1.82413C13.1079 1.65369 12.8074 1.56274 12.5 1.56274C12.1926 1.56274 11.8921 1.65369 11.6363 1.82413C11.3805 1.99457 11.1809 2.23688 11.0625 2.52056L8.79592 7.92681L2.98928 8.42974C2.68267 8.4555 2.3905 8.57122 2.14939 8.76237C1.90829 8.95352 1.72899 9.21161 1.63398 9.50426C1.53897 9.79691 1.53247 10.1111 1.61531 10.4074C1.69815 10.7037 1.86663 10.969 2.09963 11.17L6.5049 15.0196L5.18459 20.7364C5.11478 21.0355 5.1347 21.3486 5.24186 21.6365C5.34903 21.9245 5.53869 22.1744 5.78713 22.3551C6.03556 22.5358 6.33175 22.6392 6.63867 22.6525C6.94558 22.6658 7.2496 22.5883 7.51272 22.4297L12.4932 19.4024L17.4844 22.4297C17.7475 22.5883 18.0515 22.6658 18.3584 22.6525C18.6654 22.6392 18.9616 22.5358 19.21 22.3551C19.4584 22.1744 19.6481 21.9245 19.7552 21.6365C19.8624 21.3486 19.8823 21.0355 19.8125 20.7364L18.4932 15.0137L22.8975 11.17C23.1305 10.9683 23.2986 10.7023 23.3808 10.4053C23.463 10.1084 23.4555 9.79376 23.3594 9.50103ZM21.8731 9.98931L17.4688 13.8331C17.2544 14.0195 17.095 14.2609 17.0075 14.5312C16.9201 14.8015 16.9081 15.0906 16.9727 15.3672L18.2959 21.0938L13.3086 18.0665C13.0653 17.9183 12.7859 17.8399 12.501 17.8399C12.2161 17.8399 11.9367 17.9183 11.6934 18.0665L6.71291 21.0938L8.02737 15.3711C8.09196 15.0945 8.07991 14.8054 7.9925 14.5351C7.90509 14.2648 7.74563 14.0234 7.53127 13.837L3.12502 9.99517C3.12466 9.99225 3.12466 9.9893 3.12502 9.98638L8.92971 9.48443C9.21311 9.45944 9.48431 9.35756 9.71406 9.18977C9.94381 9.02197 10.1234 8.79464 10.2334 8.53228L12.5 3.13286L14.7656 8.53228C14.8757 8.79464 15.0553 9.02197 15.285 9.18977C15.5148 9.35756 15.786 9.45944 16.0694 9.48443L21.875 9.98638C21.875 9.98638 21.875 9.99224 21.875 9.99321L21.8731 9.98931Z" fill="#3761EB"/>
</svg>
