<svg width="33" height="33" viewBox="0 0 33 33" fill="none" xmlns="http://www.w3.org/2000/svg">
<path d="M30.0456 27.4834L23.0456 13.4834C22.9625 13.3173 22.8349 13.1777 22.6769 13.08C22.5189 12.9824 22.3369 12.9307 22.1512 12.9307C21.9655 12.9307 21.7835 12.9824 21.6255 13.08C21.4676 13.1777 21.3399 13.3173 21.2569 13.4834L18.5431 18.9122C16.416 18.7925 14.3694 18.0578 12.6519 16.7972C14.667 14.6452 15.8879 11.8704 16.1131 8.93091H19.1519C19.4171 8.93091 19.6714 8.82555 19.859 8.63801C20.0465 8.45048 20.1519 8.19612 20.1519 7.93091C20.1519 7.66569 20.0465 7.41134 19.859 7.2238C19.6714 7.03627 19.4171 6.93091 19.1519 6.93091H12.1519V4.93091C12.1519 4.66569 12.0465 4.41134 11.859 4.2238C11.6714 4.03627 11.4171 3.93091 11.1519 3.93091C10.8866 3.93091 10.6323 4.03627 10.4447 4.2238C10.2572 4.41134 10.1519 4.66569 10.1519 4.93091V6.93091H3.15186C2.88664 6.93091 2.63229 7.03627 2.44475 7.2238C2.25721 7.41134 2.15186 7.66569 2.15186 7.93091C2.15186 8.19612 2.25721 8.45048 2.44475 8.63801C2.63229 8.82555 2.88664 8.93091 3.15186 8.93091H14.1056C13.8829 11.3817 12.8426 13.6865 11.1519 15.4747C10.0983 14.363 9.28927 13.043 8.77686 11.5997C8.73472 11.4737 8.66793 11.3575 8.58037 11.2576C8.49282 11.1578 8.38626 11.0764 8.26691 11.0182C8.14756 10.96 8.01781 10.9261 7.88523 10.9186C7.75265 10.911 7.6199 10.93 7.49473 10.9743C7.36955 11.0186 7.25446 11.0874 7.15617 11.1767C7.05787 11.266 6.97834 11.374 6.92222 11.4943C6.8661 11.6147 6.83451 11.745 6.8293 11.8777C6.82409 12.0104 6.84535 12.1428 6.89186 12.2672C7.48844 13.9545 8.4282 15.4999 9.65186 16.8059C7.76781 18.1904 5.48989 18.9351 3.15186 18.9309C2.88664 18.9309 2.63229 19.0363 2.44475 19.2238C2.25721 19.4113 2.15186 19.6657 2.15186 19.9309C2.15186 20.1961 2.25721 20.4505 2.44475 20.638C2.63229 20.8256 2.88664 20.9309 3.15186 20.9309C6.05259 20.9341 8.87018 19.9621 11.1519 18.1709C13.0138 19.6257 15.2365 20.5465 17.5819 20.8347L14.2569 27.4834C14.1382 27.7206 14.1186 27.9952 14.2024 28.2469C14.2862 28.4985 14.4665 28.7066 14.7037 28.8253C14.9409 28.944 15.2156 28.9636 15.4672 28.8798C15.7189 28.796 15.9269 28.6156 16.0456 28.3784L17.7694 24.9309H26.5331L28.2569 28.3784C28.34 28.5445 28.4678 28.6842 28.6258 28.7818C28.7839 28.8794 28.9661 28.931 29.1519 28.9309C29.3223 28.9308 29.4899 28.8872 29.6387 28.8041C29.7875 28.721 29.9127 28.6013 30.0022 28.4563C30.0917 28.3113 30.1427 28.1458 30.1503 27.9755C30.1579 27.8052 30.1219 27.6358 30.0456 27.4834ZM18.7694 22.9309L22.1519 16.1672L25.5331 22.9309H18.7694Z" fill="black"/>
</svg>
