<svg width="24" height="24" viewBox="0 0 24 24" fill="none" xmlns="http://www.w3.org/2000/svg">
<path d="M16.9002 16.9C19.6002 14.2 19.6002 9.7 16.9002 7M7.1002 7.1C4.4002 9.8 4.4002 14.3 7.1002 17" stroke="#00365A" stroke-width="1.5" stroke-miterlimit="10" stroke-linecap="round" stroke-linejoin="round"/>
<path d="M9.7002 13.6C9.7002 14.5 10.4002 15.2 11.3002 15.2H13.0002C13.7002 15.2 14.4002 14.6 14.4002 13.8C14.4002 12.9 14.0002 12.6 13.5002 12.4L10.7002 11.4C10.0002 11.3 9.7002 11 9.7002 10.2C9.7002 9.4 10.3002 8.8 11.1002 8.8H12.9002C13.8002 8.8 14.5002 9.5 14.5002 10.4M12.0002 7.8V16.2" stroke="#00365A" stroke-width="1.5" stroke-linecap="round" stroke-linejoin="round"/>
<path d="M12 22C17.523 22 22 17.523 22 12C22 6.477 17.523 2 12 2C6.477 2 2 6.477 2 12C2 17.523 6.477 22 12 22Z" stroke="#00365A" stroke-width="1.5" stroke-miterlimit="10" stroke-linecap="round" stroke-linejoin="round"/>
</svg>
