<svg width="15" height="15" viewBox="0 0 15 15" fill="none" xmlns="http://www.w3.org/2000/svg">
<path d="M12.1875 1.875H10.7812V1.40625C10.7812 1.28193 10.7319 1.1627 10.644 1.07479C10.556 0.986886 10.4368 0.9375 10.3125 0.9375C10.1882 0.9375 10.069 0.986886 9.98104 1.07479C9.89314 1.1627 9.84375 1.28193 9.84375 1.40625V1.875H5.15625V1.40625C5.15625 1.28193 5.10686 1.1627 5.01896 1.07479C4.93105 0.986886 4.81182 0.9375 4.6875 0.9375C4.56318 0.9375 4.44395 0.986886 4.35604 1.07479C4.26814 1.1627 4.21875 1.28193 4.21875 1.40625V1.875H2.8125C2.56386 1.875 2.3254 1.97377 2.14959 2.14959C1.97377 2.3254 1.875 2.56386 1.875 2.8125V12.1875C1.875 12.4361 1.97377 12.6746 2.14959 12.8504C2.3254 13.0262 2.56386 13.125 2.8125 13.125H12.1875C12.4361 13.125 12.6746 13.0262 12.8504 12.8504C13.0262 12.6746 13.125 12.4361 13.125 12.1875V2.8125C13.125 2.56386 13.0262 2.3254 12.8504 2.14959C12.6746 1.97377 12.4361 1.875 12.1875 1.875ZM4.21875 2.8125V3.28125C4.21875 3.40557 4.26814 3.5248 4.35604 3.61271C4.44395 3.70061 4.56318 3.75 4.6875 3.75C4.81182 3.75 4.93105 3.70061 5.01896 3.61271C5.10686 3.5248 5.15625 3.40557 5.15625 3.28125V2.8125H9.84375V3.28125C9.84375 3.40557 9.89314 3.5248 9.98104 3.61271C10.069 3.70061 10.1882 3.75 10.3125 3.75C10.4368 3.75 10.556 3.70061 10.644 3.61271C10.7319 3.5248 10.7812 3.40557 10.7812 3.28125V2.8125H12.1875V4.6875H2.8125V2.8125H4.21875ZM12.1875 12.1875H2.8125V5.625H12.1875V12.1875ZM9.94102 7.16836C9.9846 7.21189 10.0192 7.26359 10.0428 7.3205C10.0664 7.3774 10.0785 7.4384 10.0785 7.5C10.0785 7.5616 10.0664 7.6226 10.0428 7.6795C10.0192 7.73641 9.9846 7.78811 9.94102 7.83164L7.12852 10.6441C7.08498 10.6877 7.03328 10.7223 6.97638 10.7459C6.91947 10.7695 6.85848 10.7816 6.79688 10.7816C6.73527 10.7816 6.67428 10.7695 6.61737 10.7459C6.56047 10.7223 6.50877 10.6877 6.46523 10.6441L5.05898 9.23789C4.97103 9.14993 4.92161 9.03064 4.92161 8.90625C4.92161 8.78186 4.97103 8.66257 5.05898 8.57461C5.14694 8.48665 5.26624 8.43724 5.39062 8.43724C5.51501 8.43724 5.63431 8.48665 5.72227 8.57461L6.79688 9.64981L9.27773 7.16836C9.32127 7.12478 9.37297 7.0902 9.42987 7.06661C9.48678 7.04302 9.54777 7.03088 9.60938 7.03088C9.67098 7.03088 9.73197 7.04302 9.78888 7.06661C9.84578 7.0902 9.89748 7.12478 9.94102 7.16836Z" fill="#3761EB"/>
</svg>
