<svg width="19" height="19" viewBox="0 0 19 19" fill="none" xmlns="http://www.w3.org/2000/svg">
<path d="M13.1538 8.03534C13.1538 8.22917 13.0769 8.41506 12.9398 8.55212C12.8028 8.68918 12.6169 8.76618 12.4231 8.76618H6.57692C6.38311 8.76618 6.19724 8.68918 6.06019 8.55212C5.92315 8.41506 5.84615 8.22917 5.84615 8.03534C5.84615 7.84151 5.92315 7.65561 6.06019 7.51855C6.19724 7.3815 6.38311 7.3045 6.57692 7.3045H12.4231C12.6169 7.3045 12.8028 7.3815 12.9398 7.51855C13.0769 7.65561 13.1538 7.84151 13.1538 8.03534ZM12.4231 10.2279H6.57692C6.38311 10.2279 6.19724 10.3049 6.06019 10.4419C5.92315 10.579 5.84615 10.7649 5.84615 10.9587C5.84615 11.1525 5.92315 11.3384 6.06019 11.4755C6.19724 11.6125 6.38311 11.6895 6.57692 11.6895H12.4231C12.6169 11.6895 12.8028 11.6125 12.9398 11.4755C13.0769 11.3384 13.1538 11.1525 13.1538 10.9587C13.1538 10.7649 13.0769 10.579 12.9398 10.4419C12.8028 10.3049 12.6169 10.2279 12.4231 10.2279ZM19 9.49701C19.0004 11.1373 18.5761 12.7498 17.7684 14.1774C16.9608 15.6051 15.7974 16.7993 14.3913 17.6439C12.9853 18.4884 11.3845 18.9545 9.74494 18.9968C8.10533 19.0391 6.48271 18.6562 5.035 17.8852L1.92466 18.9221C1.66715 19.008 1.3908 19.0205 1.1266 18.9581C0.862394 18.8957 0.620777 18.761 0.428825 18.5691C0.236874 18.3771 0.102175 18.1354 0.0398246 17.8712C-0.0225255 17.607 -0.0100624 17.3306 0.075817 17.0731L1.1126 13.9624C0.434943 12.6883 0.0564492 11.2764 0.00584372 9.83409C-0.0447618 8.39176 0.233851 6.95686 0.820535 5.6383C1.40722 4.31975 2.28655 3.15218 3.39179 2.22424C4.49703 1.2963 5.79912 0.632369 7.19923 0.282843C8.59935 -0.0666822 10.0607 -0.0926152 11.4723 0.207013C12.8839 0.50664 14.2088 1.12395 15.3462 2.0121C16.4837 2.90024 17.4039 4.03587 18.037 5.33278C18.6701 6.62969 18.9994 8.0538 19 9.49701ZM17.5385 9.49701C17.5381 8.26384 17.2541 7.04727 16.7084 5.94143C16.1627 4.83559 15.3699 3.87013 14.3914 3.11974C13.4129 2.36935 12.2749 1.85415 11.0655 1.61399C9.85602 1.37383 8.60753 1.41515 7.41661 1.73477C6.22568 2.05438 5.12424 2.64371 4.19749 3.45717C3.27075 4.27062 2.54355 5.2864 2.07215 6.4259C1.60075 7.56541 1.3978 8.79809 1.47898 10.0286C1.56016 11.2591 1.92332 12.4544 2.54034 13.5221C2.59212 13.6117 2.62428 13.7114 2.63467 13.8144C2.64506 13.9174 2.63346 14.0214 2.60062 14.1196L1.46154 17.5362L4.87788 16.3971C4.9523 16.3717 5.03037 16.3587 5.10899 16.3587C5.23733 16.3589 5.36336 16.3929 5.47437 16.4573C6.6964 17.1644 8.0831 17.5372 9.49492 17.5381C10.9067 17.539 12.2939 17.168 13.5168 16.4624C14.7398 15.7569 15.7553 14.7416 16.4613 13.5189C17.1673 12.2961 17.5388 10.909 17.5385 9.49701Z" fill="#3761EB"/>
</svg>
