<svg width="24" height="24" viewBox="0 0 24 24" fill="none" xmlns="http://www.w3.org/2000/svg">
<path d="M8.67188 14.33C8.67188 15.62 9.66188 16.66 10.8919 16.66H13.4019C14.4719 16.66 15.3419 15.75 15.3419 14.63C15.3419 13.41 14.8119 12.98 14.0219 12.7L9.99187 11.3C9.20187 11.02 8.67188 10.59 8.67188 9.37C8.67188 8.25 9.54188 7.34 10.6119 7.34H13.1219C14.3519 7.34 15.3419 8.38 15.3419 9.67M11.9999 6V18" stroke="#00365A" stroke-width="1.5" stroke-linecap="round" stroke-linejoin="round"/>
<path d="M15 22H9C4 22 2 20 2 15V9C2 4 4 2 9 2H15C20 2 22 4 22 9V15C22 20 20 22 15 22Z" stroke="#00365A" stroke-width="1.5" stroke-linecap="round" stroke-linejoin="round"/>
</svg>
