<svg width="24" height="24" viewBox="0 0 24 24" fill="none" xmlns="http://www.w3.org/2000/svg">
<path d="M22 13V9C22 4 20 2 15 2H9C4 2 2 4 2 9V15C2 20 4 22 9 22H13" stroke="#00365A" stroke-width="1.5" stroke-linecap="round" stroke-linejoin="round"/>
<path d="M7.33008 14.49L9.71008 11.4C10.0501 10.96 10.6801 10.88 11.1201 11.22L12.9501 12.66C13.3901 13 14.0201 12.92 14.3601 12.49L16.6701 9.50999M19.4801 15.82L19.7601 16.39C19.9001 16.67 20.2501 16.93 20.5601 16.99L20.9401 17.05C22.0801 17.24 22.3501 18.08 21.5301 18.91L21.1801 19.26C20.9501 19.5 20.8201 19.96 20.8901 20.28L20.9401 20.49C21.2501 21.87 20.5201 22.4 19.3201 21.68L19.0601 21.53C18.7501 21.35 18.2501 21.35 17.9401 21.53L17.6801 21.68C16.4701 22.41 15.7401 21.87 16.0601 20.49L16.1101 20.28C16.1801 19.96 16.0501 19.5 15.8201 19.26L15.4701 18.91C14.6501 18.08 14.9201 17.24 16.0601 17.05L16.4401 16.99C16.7401 16.94 17.1001 16.67 17.2401 16.39L17.5201 15.82C18.0601 14.73 18.9401 14.73 19.4801 15.82Z" stroke="#00365A" stroke-width="1.5" stroke-linecap="round" stroke-linejoin="round"/>
</svg>
