<svg width="17" height="16" viewBox="0 0 17 16" fill="none" xmlns="http://www.w3.org/2000/svg">
<path d="M8.4996 5C7.86917 5 7.2529 5.17595 6.72872 5.50559C6.20454 5.83524 5.79599 6.30377 5.55474 6.85195C5.31348 7.40013 5.25036 8.00333 5.37335 8.58527C5.49634 9.16721 5.79992 9.70176 6.2457 10.1213C6.69148 10.5409 7.25944 10.8266 7.87775 10.9424C8.49607 11.0581 9.13697 10.9987 9.71941 10.7716C10.3018 10.5446 10.7997 10.1601 11.1499 9.66671C11.5002 9.17336 11.6871 8.59334 11.6871 8C11.6862 7.2046 11.3501 6.44202 10.7525 5.87959C10.155 5.31716 9.34471 5.00083 8.4996 5ZM8.4996 10C8.07932 10 7.66847 9.8827 7.31902 9.66294C6.96956 9.44318 6.6972 9.13082 6.53636 8.76537C6.37552 8.39991 6.33344 7.99778 6.41543 7.60982C6.49743 7.22186 6.69981 6.86549 6.997 6.58579C7.29419 6.30608 7.67283 6.1156 8.08504 6.03843C8.49725 5.96126 8.92451 6.00087 9.31281 6.15224C9.7011 6.30362 10.033 6.55996 10.2665 6.88886C10.5 7.21776 10.6246 7.60444 10.6246 8C10.6246 8.53043 10.4007 9.03914 10.0022 9.41421C9.60369 9.78929 9.06319 10 8.4996 10ZM14.3434 8.135C14.346 8.045 14.346 7.955 14.3434 7.865L15.3341 6.7C15.3861 6.63883 15.422 6.56703 15.4391 6.49039C15.4562 6.41375 15.4539 6.3344 15.4324 6.25875C15.27 5.68413 15.027 5.13241 14.7099 4.61812C14.6684 4.55082 14.6108 4.49357 14.5416 4.45093C14.4724 4.40829 14.3936 4.38143 14.3115 4.3725L12.7363 4.2075C12.6708 4.1425 12.6044 4.08 12.5371 4.02L12.3512 2.53375C12.3416 2.45638 12.313 2.38219 12.2675 2.31708C12.2221 2.25197 12.1612 2.19776 12.0895 2.15875C11.5429 1.86084 10.9567 1.6324 10.3464 1.47937C10.2659 1.45925 10.1816 1.45719 10.1002 1.47337C10.0187 1.48954 9.94247 1.5235 9.87753 1.5725L8.64304 2.5C8.54742 2.5 8.45179 2.5 8.35617 2.5L7.11835 1.56937C7.05336 1.52048 6.97708 1.48664 6.89564 1.47057C6.81421 1.4545 6.72991 1.45666 6.64953 1.47687C6.03909 1.63002 5.45292 1.85868 4.90636 2.15687C4.83485 2.19595 4.77402 2.2502 4.72872 2.31531C4.68341 2.38041 4.65488 2.45456 4.64538 2.53187L4.47007 4.01687C4.40101 4.07896 4.3346 4.14146 4.27085 4.20437L2.69171 4.375C2.60951 4.384 2.53068 4.41095 2.4615 4.45371C2.39233 4.49646 2.33472 4.55383 2.29327 4.62125C1.97675 5.13573 1.73402 5.6874 1.57144 6.26188C1.55005 6.33758 1.54787 6.41695 1.56505 6.4936C1.58224 6.57024 1.61832 6.64201 1.67038 6.70312L2.65585 7.865C2.65585 7.955 2.65585 8.045 2.65585 8.135L1.66706 9.3C1.61511 9.36117 1.57915 9.43296 1.56208 9.50961C1.54501 9.58625 1.54731 9.6656 1.56878 9.74125C1.73121 10.3159 1.97417 10.8676 2.29128 11.3819C2.3328 11.4492 2.39044 11.5064 2.45962 11.5491C2.52879 11.5917 2.60758 11.6186 2.68972 11.6275L4.26488 11.7925C4.33084 11.8575 4.39725 11.92 4.4641 11.98L4.64804 13.4663C4.6576 13.5436 4.68624 13.6178 4.73167 13.6829C4.77709 13.748 4.83805 13.8022 4.90968 13.8413C5.45631 14.1392 6.04247 14.3676 6.65285 14.5206C6.73328 14.5408 6.81761 14.5428 6.89905 14.5266C6.98048 14.5105 7.05674 14.4765 7.12167 14.4275L8.35617 13.5C8.45179 13.5025 8.54742 13.5025 8.64304 13.5L9.88085 14.4325C9.94584 14.4814 10.0221 14.5152 10.1036 14.5313C10.185 14.5474 10.2693 14.5452 10.3497 14.525C10.9602 14.3721 11.5464 14.1435 12.0928 13.845C12.1644 13.8059 12.2252 13.7517 12.2705 13.6866C12.3158 13.6215 12.3443 13.5473 12.3538 13.47L12.5291 11.9875C12.5982 11.9258 12.6646 11.8633 12.7284 11.8L14.3075 11.625C14.3897 11.616 14.4685 11.589 14.5377 11.5463C14.6069 11.5035 14.6645 11.4462 14.7059 11.3787C15.0225 10.8643 15.2652 10.3126 15.4278 9.73812C15.4492 9.66242 15.4513 9.58305 15.4342 9.5064C15.417 9.42976 15.3809 9.35799 15.3288 9.29688L14.3434 8.135ZM13.2742 7.72875C13.2855 7.90943 13.2855 8.09057 13.2742 8.27125C13.2663 8.39495 13.3075 8.517 13.3898 8.61375L14.3321 9.72188C14.2239 10.0453 14.0855 10.359 13.9184 10.6594L12.4176 10.8194C12.2869 10.833 12.1662 10.8918 12.0789 10.9844C11.9511 11.1197 11.8149 11.2478 11.6712 11.3681C11.5728 11.4503 11.5104 11.5639 11.4959 11.6869L11.3292 13.0981C11.0101 13.2555 10.6767 13.3858 10.3331 13.4875L9.15503 12.6006C9.06076 12.5297 8.94366 12.4912 8.823 12.4913H8.79113C8.59916 12.5019 8.40669 12.5019 8.21472 12.4913C8.08329 12.4838 7.95361 12.5226 7.85081 12.6L6.67011 13.4875C6.32648 13.3857 5.99314 13.2554 5.67402 13.0981L5.50402 11.6875C5.48951 11.5645 5.42704 11.4509 5.3287 11.3687C5.18494 11.2484 5.0488 11.1203 4.92097 10.985C4.83367 10.8924 4.713 10.8337 4.5823 10.82L3.08285 10.6625C2.91563 10.3622 2.77718 10.0484 2.66913 9.725L3.61144 8.61625C3.69372 8.5195 3.7349 8.39745 3.72699 8.27375C3.7157 8.09307 3.7157 7.91193 3.72699 7.73125C3.7349 7.60755 3.69372 7.4855 3.61144 7.38875L2.66913 6.27812C2.77726 5.95471 2.91571 5.64097 3.08285 5.34062L4.58163 5.18062C4.71233 5.16697 4.833 5.10818 4.92031 5.01562C5.04813 4.88032 5.18428 4.75218 5.32804 4.63188C5.42677 4.54965 5.48949 4.43582 5.50402 4.3125L5.6707 2.90187C5.98978 2.74449 6.32313 2.61419 6.66679 2.5125L7.84484 3.39937C7.94763 3.47682 8.07731 3.51557 8.20874 3.50813C8.40071 3.4975 8.59318 3.4975 8.78515 3.50813C8.91658 3.51557 9.04626 3.47682 9.14906 3.39937L10.3291 2.5125C10.6727 2.61427 11.0061 2.74457 11.3252 2.90187L11.4952 4.3125C11.5097 4.43551 11.5722 4.54908 11.6705 4.63125C11.8143 4.75156 11.9504 4.87969 12.0782 5.015C12.1655 5.10755 12.2862 5.16635 12.4169 5.18L13.9164 5.33687C14.0836 5.63719 14.222 5.95093 14.3301 6.27437L13.3878 7.38312C13.3047 7.48068 13.2635 7.604 13.2722 7.72875H13.2742Z" fill="#3761EB"/>
</svg>
