<svg width="7" height="13" viewBox="0 0 7 13" fill="none" xmlns="http://www.w3.org/2000/svg">
<path d="M1.06523 6.08999L5.44023 0.86285C5.48087 0.814284 5.52913 0.775761 5.58224 0.749477C5.63535 0.723194 5.69227 0.709665 5.74976 0.709665C5.80724 0.709665 5.86417 0.723194 5.91727 0.749477C5.97038 0.775761 6.01864 0.814284 6.05929 0.86285C6.09994 0.911415 6.13218 0.969071 6.15418 1.03253C6.17618 1.09598 6.1875 1.16399 6.1875 1.23267C6.1875 1.30135 6.17618 1.36936 6.15418 1.43282C6.13218 1.49627 6.09994 1.55393 6.05929 1.60249L1.99327 6.45981L6.05929 11.3171C6.14138 11.4152 6.1875 11.5482 6.1875 11.687C6.1875 11.8257 6.14138 11.9587 6.05929 12.0568C5.9772 12.1549 5.86585 12.21 5.74976 12.21C5.63366 12.21 5.52232 12.1549 5.44023 12.0568L1.06523 6.82963C1.02455 6.78109 0.992279 6.72344 0.970262 6.65998C0.948245 6.59652 0.936913 6.52851 0.936913 6.45981C0.936913 6.39112 0.948245 6.3231 0.970262 6.25964C0.992279 6.19619 1.02455 6.13854 1.06523 6.08999Z" fill="#3761EB"/>
</svg>
