<svg width="44" height="49" viewBox="0 0 44 49" fill="none" xmlns="http://www.w3.org/2000/svg">
<g clip-path="url(#clip0_142_1353)">
<path d="M24.4852 5.94128C17.7426 5.94128 12.2629 11.4334 12.2629 18.1913V24.0917C12.2629 25.3371 11.7333 27.2359 11.1018 28.2975L8.75922 32.1971C7.31293 34.6063 8.31107 37.2809 10.9592 38.1792C19.7389 41.1192 29.2111 41.1192 37.9907 38.1792C40.4555 37.3625 41.5352 34.443 40.1907 32.1971L37.8481 28.2975C37.237 27.2359 36.7074 25.3371 36.7074 24.0917V18.1913C36.7074 11.4538 31.2074 5.94128 24.4852 5.94128Z" stroke="#00365A" stroke-width="1.5" stroke-miterlimit="10" stroke-linecap="round"/>
<path d="M28.2536 6.53332C25.7902 5.83014 23.1799 5.83014 20.7166 6.53332C21.3073 5.02248 22.774 3.96082 24.4851 3.96082C26.1962 3.96082 27.6628 5.02248 28.2536 6.53332V6.53332Z" stroke="#00365A" stroke-width="1.5" stroke-miterlimit="10" stroke-linecap="round" stroke-linejoin="round"/>
<path d="M30.5962 38.9142C30.5962 42.2829 27.8462 45.0392 24.4851 45.0392C22.8148 45.0392 21.2666 44.345 20.1666 43.2425C19.0221 42.0937 18.3777 40.5376 18.374 38.9142" stroke="#00365A" stroke-width="1.5" stroke-miterlimit="10"/>
</g>
<defs>
<clipPath id="clip0_142_1353">
<rect width="44" height="49" fill="white"/>
</clipPath>
</defs>
</svg>
