<svg width="7" height="13" viewBox="0 0 7 13" fill="none" xmlns="http://www.w3.org/2000/svg">
<path d="M5.93478 6.82993L1.55978 12.0571C1.51913 12.1056 1.47087 12.1442 1.41776 12.1704C1.36465 12.1967 1.30773 12.2103 1.25024 12.2103C1.19276 12.2103 1.13584 12.1967 1.08273 12.1704C1.02962 12.1442 0.981362 12.1056 0.940713 12.0571C0.900065 12.0085 0.867821 11.9509 0.845823 11.8874C0.823824 11.8239 0.812502 11.7559 0.812502 11.6873C0.812502 11.6186 0.823824 11.5506 0.845823 11.4871C0.867821 11.4237 0.900065 11.366 0.940713 11.3174L5.00673 6.46011L0.940712 1.60279C0.858619 1.5047 0.8125 1.37168 0.8125 1.23297C0.8125 1.09426 0.858619 0.961228 0.940712 0.863145C1.0228 0.765063 1.13415 0.709961 1.25024 0.709961C1.36634 0.709961 1.47768 0.765063 1.55977 0.863145L5.93478 6.09029C5.97545 6.13883 6.00772 6.19648 6.02974 6.25994C6.05176 6.3234 6.06309 6.39141 6.06309 6.46011C6.06309 6.5288 6.05176 6.59682 6.02974 6.66028C6.00772 6.72373 5.97545 6.78138 5.93478 6.82993Z" fill="#3761EB"/>
</svg>
