<svg width="19" height="19" viewBox="0 0 19 19" fill="none" xmlns="http://www.w3.org/2000/svg">
<path d="M7.95669 2.00291L3.19086 5.11416C1.66294 6.11166 1.66294 8.34417 3.19086 9.34167L7.95669 12.4529C8.81169 13.015 10.2209 13.015 11.0759 12.4529L15.8179 9.34167C17.3379 8.34417 17.3379 6.11958 15.8179 5.12208L11.0759 2.01083C10.2209 1.44083 8.81169 1.44083 7.95669 2.00291Z" stroke="white" stroke-width="1.5" stroke-linecap="round" stroke-linejoin="round"/>
<path d="M4.45714 10.355L4.44922 14.0679C4.44922 15.0733 5.22505 16.15 6.17505 16.4667L8.70047 17.3058C9.13589 17.4483 9.8563 17.4483 10.2996 17.3058L12.8251 16.4667C13.7751 16.15 14.5509 15.0733 14.5509 14.0679V10.3946M16.9417 11.875V7.125" stroke="white" stroke-width="1.5" stroke-linecap="round" stroke-linejoin="round"/>
</svg>
