<svg width="24" height="24" viewBox="0 0 24 24" fill="none" xmlns="http://www.w3.org/2000/svg">
<path d="M11.9998 14H12.9998C14.0998 14 14.9998 13.1 14.9998 12V2H5.99977C4.49977 2 3.18977 2.83 2.50977 4.05" stroke="#00365A" stroke-width="1.5" stroke-linecap="round" stroke-linejoin="round"/>
<path d="M2 17C2 18.66 3.34 20 5 20H6C6 18.9 6.9 18 8 18C9.1 18 10 18.9 10 20H14C14 18.9 14.9 18 16 18C17.1 18 18 18.9 18 20H19C20.66 20 22 18.66 22 17V14H19C18.45 14 18 13.55 18 13V10C18 9.45 18.45 9 19 9H20.29L18.58 6.01C18.4038 5.70402 18.1504 5.44968 17.845 5.27243C17.5396 5.09518 17.1931 5.00124 16.84 5H15V12C15 13.1 14.1 14 13 14H12" stroke="#00365A" stroke-width="1.5" stroke-linecap="round" stroke-linejoin="round"/>
<path d="M2 8H8M2 11H6M2 14H4M8 22C8.53043 22 9.03914 21.7893 9.41421 21.4142C9.78929 21.0391 10 20.5304 10 20C10 19.4696 9.78929 18.9609 9.41421 18.5858C9.03914 18.2107 8.53043 18 8 18C7.46957 18 6.96086 18.2107 6.58579 18.5858C6.21071 18.9609 6 19.4696 6 20C6 20.5304 6.21071 21.0391 6.58579 21.4142C6.96086 21.7893 7.46957 22 8 22V22ZM16 22C16.5304 22 17.0391 21.7893 17.4142 21.4142C17.7893 21.0391 18 20.5304 18 20C18 19.4696 17.7893 18.9609 17.4142 18.5858C17.0391 18.2107 16.5304 18 16 18C15.4696 18 14.9609 18.2107 14.5858 18.5858C14.2107 18.9609 14 19.4696 14 20C14 20.5304 14.2107 21.0391 14.5858 21.4142C14.9609 21.7893 15.4696 22 16 22ZM22 12V14H19C18.45 14 18 13.55 18 13V10C18 9.45 18.45 9 19 9H20.29L22 12Z" stroke="#00365A" stroke-width="1.5" stroke-linecap="round" stroke-linejoin="round"/>
</svg>
