<svg width="32" height="32" viewBox="0 0 32 32" fill="none" xmlns="http://www.w3.org/2000/svg">
<path d="M16.0002 11C16.0002 8.24997 18.3127 5.96247 21.0627 5.99997C22.0257 6.01108 22.9651 6.30011 23.7678 6.83231C24.5706 7.36451 25.2025 8.11722 25.5877 8.99997H30.0002L25.9627 13.0375C25.7021 17.0932 23.9068 20.8974 20.9417 23.6768C17.9766 26.4562 14.0643 28.002 10.0002 28C6.00019 28 5.00019 26.5 5.00019 26.5C5.00019 26.5 9.00019 25 11.0002 22C11.0002 22 3.00019 18 5.00019 6.99997C5.00019 6.99997 10.0002 12 16.0002 13V11Z" stroke="black" stroke-width="1.5" stroke-linecap="round" stroke-linejoin="round"/>
</svg>
