<svg width="32" height="32" viewBox="0 0 32 32" fill="none" xmlns="http://www.w3.org/2000/svg">
<path d="M5.67485 22.125C4.18596 19.613 3.66516 16.6439 4.21023 13.7752C4.7553 10.9064 6.32876 8.33525 8.6352 6.54438C10.9416 4.75352 13.8225 3.86611 16.7368 4.04875C19.6512 4.2314 22.3987 5.47153 24.4635 7.53634C26.5283 9.60115 27.7684 12.3486 27.9511 15.263C28.1337 18.1774 27.2463 21.0582 25.4554 23.3646C23.6646 25.6711 21.0934 27.2445 18.2247 27.7896C15.3559 28.3347 12.3868 27.8139 9.87485 26.325V26.325L5.72485 27.5C5.55482 27.5497 5.37455 27.5528 5.20292 27.5089C5.0313 27.465 4.87464 27.3757 4.74938 27.2504C4.62411 27.1252 4.53485 26.9685 4.49095 26.7969C4.44705 26.6253 4.45012 26.445 4.49985 26.275L5.67485 22.125Z" stroke="black" stroke-width="1.5" stroke-linecap="round" stroke-linejoin="round"/>
<path d="M19.0125 23C17.6967 23.0033 16.3933 22.7466 15.177 22.2446C13.9608 21.7426 12.8557 21.0052 11.9253 20.0748C10.9949 19.1444 10.2575 18.0393 9.75547 16.823C9.25346 15.6068 8.99673 14.3033 9.00003 12.9875C9.00334 12.0614 9.37355 11.1744 10.0296 10.5207C10.6856 9.86705 11.5739 9.50002 12.5 9.50003V9.50003C12.6528 9.49881 12.8031 9.5388 12.9351 9.61579C13.0671 9.69278 13.1759 9.80392 13.25 9.93753L14.7125 12.4875C14.7995 12.6425 14.8441 12.8177 14.8419 12.9955C14.8397 13.1732 14.7908 13.3472 14.7 13.5L13.525 15.4625C14.1269 16.8014 15.1987 17.8732 16.5375 18.475L18.5 17.3C18.6529 17.2093 18.8269 17.1603 19.0046 17.1581C19.1823 17.1559 19.3575 17.2006 19.5125 17.2875L22.0625 18.75C22.1961 18.8242 22.3073 18.933 22.3843 19.0649C22.4613 19.1969 22.5013 19.3472 22.5 19.5C22.4968 20.4251 22.1287 21.3116 21.4757 21.9669C20.8227 22.6222 19.9376 22.9934 19.0125 23V23Z" stroke="black" stroke-width="1.5" stroke-linecap="round" stroke-linejoin="round"/>
</svg>
