<svg width="23" height="17" viewBox="0 0 23 17" fill="none" xmlns="http://www.w3.org/2000/svg">
<path d="M1.229 14.6422V12.1976C1.229 6.05941 5.76355 0.999399 11.3974 0.978048C12.7412 0.972427 14.0727 1.25544 15.3157 1.81086C16.5587 2.36628 17.6886 3.18316 18.6406 4.21465C19.5927 5.24614 20.3481 6.47193 20.8635 7.82169C21.3789 9.17145 21.6443 10.6186 21.6443 12.0802V14.6422C21.6443 14.8687 21.5615 15.0859 21.4143 15.2461C21.267 15.4062 21.0673 15.4962 20.8591 15.4962H2.01421C1.80596 15.4962 1.60624 15.4062 1.45898 15.2461C1.31173 15.0859 1.229 14.8687 1.229 14.6422Z" stroke="#00365A" stroke-width="1.5" stroke-linecap="round" stroke-linejoin="round"/>
<path d="M11.4365 0.978088V4.39413" stroke="#00365A" stroke-width="1.5" stroke-linecap="round" stroke-linejoin="round"/>
<path d="M1.57275 9.20862L4.61541 10.0947" stroke="#00365A" stroke-width="1.5" stroke-linecap="round" stroke-linejoin="round"/>
<path d="M21.301 9.20862L18.2583 10.0947" stroke="#00365A" stroke-width="1.5" stroke-linecap="round" stroke-linejoin="round"/>
<path d="M9.02197 15.4962L15.7355 5.98468" stroke="#00365A" stroke-width="1.5" stroke-linecap="round" stroke-linejoin="round"/>
</svg>
